<svg xmlns="http://www.w3.org/2000/svg" width="48" height="37" viewBox="0 0 48 37" fill="none"><path d="M48 11.3694C47.9344 12.6443 47.3813 13.5724 46.247 14.0786C45.1127 14.5848 44.0065 14.4161 43.0972 13.5724C41.2317 11.8475 39.2349 10.3288 36.9944 9.13825C32.0259 6.49466 26.7388 5.46347 21.1422 6.04468C15.002 6.68215 9.65853 9.12887 5.16817 13.3661C3.96824 14.5004 2.39333 14.5567 1.31527 13.8255C-0.297134 12.7193 -0.465873 10.4975 1.02466 9.18512C2.35583 8.01332 3.7245 6.85089 5.17754 5.82907C8.51484 3.47609 12.199 1.88243 16.1738 0.935612C20.0735 -0.0112069 24.1139 -0.245568 28.0887 0.260652C35.1851 1.15122 41.3723 4.0198 46.6501 8.86639C47.2407 9.41011 47.775 9.97258 47.925 10.7975C47.9625 10.985 47.9813 11.1913 48 11.3694Z" fill="#286600"></path><path d="M24.9954 9.81323C30.4232 9.8976 35.9448 12.1381 40.5476 16.6003C41.7382 17.7534 41.785 19.6002 40.6601 20.7532C39.4883 21.9625 37.6697 22 36.4604 20.8188C33.5824 18.0065 30.1514 16.2722 26.1485 15.8316C20.6269 15.2223 15.7803 16.7878 11.7493 20.6407C10.5588 21.775 9.17136 21.8969 8.0933 21.325C6.32153 20.3876 5.98405 18.0346 7.43709 16.6003C9.29323 14.7442 11.4587 13.2255 13.8305 12.0912C17.0553 10.5632 20.4582 9.81323 24.9954 9.81323Z" fill="#286600"></path><path d="M24.0295 19.6001C27.9855 19.6845 31.3603 21.1281 34.0883 24.0248C35.2601 25.2623 35.2226 27.0903 34.0227 28.234C32.8227 29.3776 31.0041 29.3214 29.8229 28.0746C28.248 26.4153 26.3263 25.5247 24.0483 25.506C21.7703 25.4872 19.8204 26.3403 18.2549 28.009C16.6518 29.7245 13.9614 29.1995 13.2302 27.0153C12.8646 25.9278 13.0895 24.9154 13.877 24.0811C16.6143 21.1375 20.0173 19.6751 24.0295 19.6001Z" fill="#286600"></path><path d="M24.0486 29.7902C26.036 29.8371 27.6015 31.4307 27.5734 33.3994C27.5359 35.3586 25.9141 36.9242 23.9455 36.8867C21.9956 36.8492 20.4394 35.2461 20.4582 33.2869C20.4957 31.3089 22.1175 29.7433 24.0486 29.7902Z" fill="#286600"></path></svg>