<svg xmlns="http://www.w3.org/2000/svg" width="48" height="48" viewBox="0 0 48 48" fill="none"><path d="M21.643 43.2272C21.1936 43.4417 20.7952 43.6153 20.499 43.7481C17.2306 42.3284 4.08551 35.9754 4.08551 25.731V9.93033L20.4888 4.21062L36.8921 9.93033V17.1821C38.3323 17.4477 39.7009 17.9073 40.9776 18.5303V8.47998C40.9776 7.61181 40.4261 6.83556 39.609 6.54958L21.1629 0.114905C20.7237 -0.0383016 20.2539 -0.0383016 19.8147 0.114905L1.36864 6.54958C0.551544 6.83556 0 7.61181 0 8.47998V25.7412C0 40.1937 18.9567 47.5681 19.7636 47.8745C19.9986 47.9664 20.2437 48.0073 20.4888 48.0073C20.7339 48.0073 20.9791 47.9664 21.214 47.8745C21.2957 47.8438 22.7665 47.2719 24.8807 46.1892C23.6755 45.3517 22.5826 44.3609 21.643 43.2272Z" fill="#286600"></path><path d="M33.9766 18.9395C26.2448 18.9395 19.9531 25.2311 19.9531 32.963C19.9531 40.6948 26.2448 46.9865 33.9766 46.9865C41.7084 46.9865 48.0001 40.6948 48.0001 32.963C48.0001 25.2311 41.7084 18.9395 33.9766 18.9395ZM40.8505 29.7456L31.8419 38.7542C31.6377 38.9584 31.3823 39.0504 31.1168 39.0504C30.8512 39.0504 30.5959 38.9482 30.3916 38.7542L26.255 34.6176C25.8567 34.2192 25.8567 33.5758 26.255 33.1774C26.6534 32.7791 27.2968 32.7791 27.6952 33.1774L31.1066 36.5888L39.4001 28.2953C39.7985 27.8969 40.4419 27.8969 40.8403 28.2953C41.2386 28.6936 41.2488 29.3473 40.8505 29.7456Z" fill="#286600"></path></svg>