<svg xmlns="http://www.w3.org/2000/svg" width="48" height="48" viewBox="0 0 48 48" fill="none"><g clip-path="url(#clip0_162_6409)"><path d="M29.0792 6.86719C29.7371 6.27816 30.6167 5.93166 31.5777 5.96972C33.4069 6.04209 34.8958 7.53356 34.9649 9.36291C35.041 11.3766 33.4312 13.0329 31.4345 13.0329C30.5294 13.0329 29.7042 12.6922 29.0791 12.1327V18.9213H35.8677C35.2787 19.5792 34.9322 20.4588 34.9703 21.4198C35.0426 23.249 36.5341 24.7379 38.3634 24.807C40.3771 24.8831 42.0334 23.2732 42.0334 21.2766C42.0334 20.3715 41.6927 19.5463 41.133 18.9212H48.0002V2.35538C48.0004 1.0545 46.9458 0 45.645 0H29.0792V6.86719Z" fill="#286600"></path><path d="M24.8127 31.5774C24.7747 30.6164 25.1212 29.7368 25.7101 29.0789H18.9215V35.8675C18.2636 35.2784 17.384 34.932 16.423 34.97C14.5938 35.0424 13.1049 36.5339 13.0358 38.3632C12.9597 40.3769 14.5695 42.0331 16.5662 42.0331C17.4713 42.0331 18.2965 41.6925 18.9216 41.1329V48H35.4874C36.7882 48 37.8428 46.9455 37.8428 45.6447V29.0789H30.9756C31.5352 29.704 31.8759 30.5292 31.8759 31.4342C31.8759 33.4309 30.2195 35.0407 28.206 34.9647C26.3765 34.8955 24.885 33.4066 24.8127 31.5774Z" fill="#286600"></path><path d="M21.2765 16.1245C20.3714 16.1245 19.5462 16.4652 18.9211 17.0249V10.1577H2.35538C1.0545 10.1577 0 11.2122 0 12.513V26.2663H3.17062C3.40012 23.0711 6.03553 20.5043 9.25659 20.3827C9.33806 20.3796 9.41897 20.3781 9.49988 20.3781C12.8451 20.3781 15.5939 22.98 15.829 26.2663H18.9212V22.2902C19.5791 22.8792 20.4587 23.2257 21.4197 23.1877C23.2489 23.1153 24.7378 21.6238 24.8069 19.7945C24.883 17.7809 23.2732 16.1245 21.2765 16.1245Z" fill="#286600"></path><path d="M11.9946 42.9011C10.7875 41.6476 10.159 39.9982 10.2249 38.2569C10.3466 35.0359 12.9135 32.4005 16.1087 32.171V29.0788H12.1325C12.6921 28.4537 13.0328 27.6285 13.0328 26.7235C13.0328 24.7268 11.3765 23.117 9.36291 23.193C7.53356 23.2622 6.04209 24.751 5.96972 26.5802C5.93175 27.5412 6.27825 28.4208 6.86719 29.0787H0V45.6445C0 46.9455 1.0545 48 2.35537 48H16.1088V44.8289C14.5573 44.7152 13.0784 44.0268 11.9946 42.9011Z" fill="#286600"></path></g><defs><clipPath id="clip0_162_6409"><rect width="48" height="48" fill="white"></rect></clipPath></defs></svg>